HIERARCHY
ROOT Hips
{
	OFFSET 0.000000 0.000000 0.000000 
	CHANNELS 6 Xposition Yposition Zposition Zrotation Yrotation Xrotation
	JOINT LeftUpLeg
	{
		OFFSET 1.363060 -1.794630 0.839290 
		CHANNELS 3 Zrotation Yrotation Xrotation
		JOINT LeftLeg
		{
			OFFSET 2.448110 -6.726130 0.000000 
			CHANNELS 3 Zrotation Yrotation Xrotation
			JOINT LeftFoot
			{
				OFFSET 2.562200 -7.039590 0.000000 
				CHANNELS 3 Zrotation Yrotation Xrotation
				JOINT LeftToeBase
				{
					OFFSET 0.157640 -0.433110 2.322550 
					CHANNELS 3 Zrotation Yrotation Xrotation
					End Site
					{
						OFFSET 0.000000 0.000000 0.000000 
					}
				}
			}
		}
	}
	JOINT RightUpLeg
	{
		OFFSET -1.305520 -1.794630 0.839290 
		CHANNELS 3 Zrotation Yrotation Xrotation
		JOINT RightLeg
		{
			OFFSET -2.542530 -6.985550 0.000000 
			CHANNELS 3 Zrotation Yrotation Xrotation
			JOINT RightFoot
			{
				OFFSET -2.568260 -7.056230 0.000000 
				CHANNELS 3 Zrotation Yrotation Xrotation
				JOINT RightToeBase
				{
					OFFSET -0.164730 -0.452590 2.363150 
					CHANNELS 3 Zrotation Yrotation Xrotation
					End Site
					{
						OFFSET 0.000000 0.000000 0.000000 
					}
				}
			}
		}
	}
	JOINT Spine
	{
		OFFSET 0.028270 2.035590 -0.193380 
		CHANNELS 3 Zrotation Yrotation Xrotation
		JOINT Spine1
		{
			OFFSET 0.056720 2.048850 -0.042750 
			CHANNELS 3 Zrotation Yrotation Xrotation
			JOINT Neck1
			{
				OFFSET -0.054170 1.746240 0.172020 
				CHANNELS 3 Zrotation Yrotation Xrotation
				JOINT Head
				{
					OFFSET 0.104070 1.761360 -0.123970 
					CHANNELS 3 Zrotation Yrotation Xrotation
					End Site
					{
						OFFSET 0.000000 0.000000 0.000000 
					}
				}
			}
			JOINT LeftArm
			{
				OFFSET 3.362410 1.200890 -0.311210 
				CHANNELS 3 Zrotation Yrotation Xrotation
				JOINT LeftForeArm
				{
					OFFSET 4.983000 -0.000000 -0.000000 
					CHANNELS 3 Zrotation Yrotation Xrotation
					JOINT LeftHand
					{
						OFFSET 3.483560 -0.000000 -0.000000 
						CHANNELS 3 Zrotation Yrotation Xrotation
						JOINT LeftHandIndex1
						{
							OFFSET 0.715260 -0.000000 -0.000000 
							CHANNELS 3 Zrotation Yrotation Xrotation
							End Site
							{
								OFFSET 0.000000 0.000000 0.000000 
							}
						}
					}
				}
			}
			JOINT RightArm
			{
				OFFSET -3.136600 1.374050 -0.404650 
				CHANNELS 3 Zrotation Yrotation Xrotation
				JOINT RightForeArm
				{
					OFFSET -5.241900 -0.000000 -0.000000 
					CHANNELS 3 Zrotation Yrotation Xrotation
					JOINT RightHand
					{
						OFFSET -3.444170 -0.000000 -0.000000 
						CHANNELS 3 Zrotation Yrotation Xrotation
						JOINT RightHandIndex1
						{
							OFFSET -0.622530 -0.000000 -0.000000 
							CHANNELS 3 Zrotation Yrotation Xrotation
							End Site
							{
								OFFSET 0.000000 0.000000 0.000000 
							}
						}
					}
				}
			}
		}
	}
}
MOTION
Frames: 18
Frame Time: 0.041667
0.413580 19.725757 11.359089 8.204135 4.127091 9.758517 -18.527551 -6.705680 17.131281 -0.818810 5.433777 14.670943 1.596735 19.906409 44.143638 0.925900 -6.130200 -17.162700 -0.096129 14.253071 -33.964594 -0.116593 -9.363065 21.014825 3.431115 -19.703745 21.297961 -0.014300 0.771200 -2.119400 -0.468552 -7.846279 1.066451 2.457239 -3.808445 -11.763511 2.660708 3.922376 -2.714392 0.108900 1.921100 -2.354600 -76.140500 -5.416704 55.185476 136.963351 -54.880230 -100.479188 0.497976 -1.156401 -26.515006 -7.125000 0.000000 0.000000 70.143083 -37.044509 39.493249 -82.198876 63.746757 -65.107697 2.337939 1.344041 0.284815 7.125000 0.000000 0.000000 
0.423045 19.704121 11.915383 8.155277 3.451464 9.672605 -19.431560 -6.267703 16.256008 0.190839 6.985473 19.584545 1.366464 18.870313 43.142086 0.983700 -6.313300 -17.696100 -0.428634 15.340371 -32.827921 0.180399 -8.452814 18.579682 4.941293 -22.714642 18.355329 -0.014300 0.772000 -2.121600 -0.531925 -7.566287 1.000295 2.160328 -3.653075 -11.826954 2.401385 3.843323 -2.586731 -0.013600 1.882700 -2.305000 -75.902360 -4.323266 55.236564 136.207715 -55.341130 -99.974650 0.500307 -1.163550 -25.380635 -7.125000 0.000000 0.000000 70.305717 -36.640012 39.457984 -81.571368 63.519678 -64.619569 2.369788 1.330084 0.251074 7.125000 0.000000 0.000000 
0.441145 19.669379 12.483535 8.008631 2.951197 9.503168 -20.122354 -5.470733 15.241187 1.351255 8.462344 24.467022 1.353895 18.184327 42.871841 0.937000 -6.165800 -17.266100 0.306584 14.335969 -32.166552 0.506729 -7.699000 16.795824 5.634930 -23.555990 16.396952 -0.006500 0.520000 -1.428800 -0.508042 -7.231746 1.389652 1.826227 -3.529500 -11.074441 2.190745 3.754833 -2.860664 -0.070200 1.839700 -2.395700 -75.796893 -3.560932 55.677965 135.787886 -55.606489 -99.683677 0.489579 -1.162937 -25.626207 -7.125000 0.000000 0.000000 70.455428 -35.614849 39.168981 -81.287478 63.331310 -64.404264 2.379819 1.340065 0.010912 7.125000 0.000000 0.000000 
0.458620 19.614977 13.033379 7.852761 2.217454 9.304340 -20.880739 -4.505590 14.078488 2.635297 9.859672 29.441423 1.517561 17.365266 43.034161 0.910500 -6.080400 -17.017800 1.145911 13.508813 -31.492100 0.685795 -7.171990 15.503259 6.025383 -24.723554 16.709832 -0.025300 1.027500 -2.824400 -0.353831 -6.756564 1.703086 1.708612 -3.301483 -10.477414 2.062993 3.678106 -3.181033 -0.065800 1.809300 -2.556200 -75.870153 -2.604261 56.574929 135.806526 -55.646528 -99.657109 0.445923 -1.161363 -27.397799 -7.125000 0.000000 0.000000 70.358862 -34.367188 39.017219 -80.514011 62.991563 -63.800390 2.400611 1.363066 -0.197683 7.125000 0.000000 0.000000 
0.472246 19.547052 13.583016 7.431468 1.455186 9.007671 -21.293483 -3.364201 12.859604 4.124414 11.239198 34.626304 1.674962 17.173442 43.359779 0.705800 -5.369400 -14.965300 2.334169 12.811737 -30.789379 0.827815 -6.772523 14.687939 6.270287 -25.410580 16.932416 -0.069300 1.697800 -4.671200 -0.097581 -6.303943 1.659316 1.584863 -3.054495 -10.561280 1.802130 3.609670 -3.244204 -0.152400 1.784000 -2.693200 -76.194742 -1.283377 54.759050 133.629280 -56.792062 -98.283198 0.503311 -1.290845 -22.175198 -7.125000 0.000000 0.000000 69.818451 -33.670013 39.415588 -79.767366 62.723082 -63.176093 2.416456 1.370002 -0.453347 7.125000 0.000000 0.000000 
0.490450 19.474031 14.150856 6.832124 1.209485 8.427601 -21.325137 -2.535411 11.876504 5.735558 12.561102 40.056849 1.911386 16.877952 43.804775 0.568100 -4.827100 -13.415900 3.810108 11.620178 -29.767781 0.973975 -6.431516 14.152920 6.246027 -25.296402 17.317921 -0.187300 2.787600 -7.687900 0.136539 -6.013184 1.656074 1.260490 -2.898483 -10.839394 1.551798 3.474451 -2.750002 -0.240400 1.733400 -2.539400 -76.313079 0.633307 55.166505 132.545390 -57.434453 -97.520171 0.472749 -1.257283 -23.192235 -7.125000 0.000000 0.000000 69.249693 -33.129715 39.724473 -79.618336 62.650601 -63.053329 2.408760 1.396845 -0.882061 7.125000 0.000000 0.000000 
0.504908 19.389776 14.716616 6.109534 0.798977 7.864855 -21.163985 -1.526018 10.636924 7.466427 13.769278 45.722945 1.933722 16.748683 43.532345 0.469000 -4.392500 -12.183600 5.323506 10.660848 -28.803574 1.088421 -6.214344 13.971123 5.794692 -24.396133 18.534350 -0.388900 4.004700 -11.090000 0.382282 -5.468881 3.009776 0.844310 -2.722744 -8.622144 1.437630 3.353846 -3.078944 -0.249800 1.674800 -2.574400 -76.415028 0.436350 55.873572 132.313111 -57.573444 -97.305425 0.368494 -1.249614 -26.495304 -7.125000 0.000000 0.000000 69.422016 -30.496470 39.311770 -79.221725 62.281449 -62.717668 2.400387 1.443436 -1.242070 7.125000 0.000000 0.000000 
0.506677 19.282116 15.264068 5.278246 -0.126730 7.441537 -20.785022 -0.030811 8.841436 9.275070 14.834955 51.657939 1.857977 16.335619 42.751361 0.493900 -4.506000 -12.504700 6.876600 10.313842 -28.078822 1.140559 -6.170065 14.341288 5.019600 -22.738442 20.073233 -0.242100 3.166100 -8.741600 0.674681 -4.754410 3.484157 0.557051 -2.378782 -7.962457 1.506899 3.376324 -2.882193 -0.199100 1.693700 -2.489000 -76.541212 1.036646 54.628873 129.756812 -58.736754 -95.676846 0.417613 -1.377328 -24.215771 -7.125000 0.000000 0.000000 69.151842 -28.952616 39.234183 -79.364885 62.200284 -62.828587 2.377586 1.484469 -1.814163 7.125000 0.000000 0.000000 
0.506885 19.147099 15.805799 4.774195 -0.589886 6.954848 -20.423273 1.120804 7.201093 11.153086 15.764495 57.777301 1.716860 16.002122 41.672384 0.530800 -4.668800 -12.966200 8.506298 8.777740 -27.659883 1.171205 -6.326548 15.366798 3.474329 -19.135292 22.621591 -0.113000 2.167800 -5.969500 0.858948 -4.310916 3.584574 0.366360 -2.138149 -8.042104 1.473371 3.365127 -2.400707 -0.219800 1.695700 -2.312500 -76.622332 2.583046 53.878834 127.847376 -59.589695 -94.421886 0.420943 -1.454120 -23.467484 -7.125000 0.000000 0.000000 68.619080 -27.851860 39.384780 -79.722617 62.236995 -63.129148 2.358240 1.501614 -2.446328 7.125000 0.000000 0.000000 
0.504908 19.021028 16.351795 4.399141 -0.724416 6.476794 -19.823550 2.079148 5.464586 12.975457 16.513390 63.943086 1.521647 15.062477 40.098131 0.547500 -4.740400 -13.169700 10.022351 7.184111 -27.383500 1.233651 -6.589856 17.107819 1.405236 -12.902316 24.115655 -0.018000 -0.865800 2.379600 1.038942 -4.074114 3.509767 0.324374 -1.987917 -8.386877 1.253984 3.263898 -2.117936 -0.332800 1.651000 -2.299200 -76.708271 4.624143 53.323144 126.435246 -60.237410 -93.443083 0.390536 -1.497390 -23.212159 -7.125000 0.000000 0.000000 67.860196 -26.708343 39.880702 -80.019986 62.256705 -63.366832 2.337117 1.514418 -2.999727 7.125000 0.000000 0.000000 
0.498355 18.898910 16.892174 3.989474 -1.116120 6.028208 -19.008069 3.209738 3.413787 14.832744 17.099989 70.156413 1.153921 14.507066 37.839416 0.501800 -4.541000 -12.604000 11.311514 6.613683 -27.017380 1.142043 -7.073425 19.460962 0.044697 -7.313509 22.861912 -0.093300 -1.970200 5.423400 1.218868 -3.650120 3.347410 0.299971 -1.742023 -8.846944 1.189708 3.101197 -1.977533 -0.384200 1.575500 -2.405300 -76.649482 6.513930 52.977706 124.724644 -60.960357 -92.273941 0.361514 -1.545539 -23.068298 -7.125000 0.000000 0.000000 67.090442 -25.683209 40.305141 -80.671724 62.386196 -63.872998 2.297468 1.531993 -3.421700 7.125000 0.000000 0.000000 
0.489930 18.759940 17.415806 3.809369 -1.681897 5.546088 -18.414637 4.221040 1.254076 16.723404 17.526437 76.291242 0.840554 14.539465 35.877576 0.420300 -4.161200 -11.530600 12.065391 7.010453 -26.148808 0.750779 -7.786579 22.033740 -0.029814 -5.446115 19.511487 -0.342800 -3.762000 10.407900 1.289209 -3.145363 3.356718 0.298050 -1.447201 -9.111417 1.369186 3.045943 -1.668502 -0.323100 1.552400 -2.345800 -76.454559 8.166146 52.517510 123.180043 -61.576788 -91.221796 0.337464 -1.582350 -23.248608 -7.125000 0.000000 0.000000 66.447586 -24.446446 40.393415 -82.003507 62.678663 -64.915312 2.232854 1.549281 -3.996272 7.125000 0.000000 0.000000 
0.474639 18.599231 17.908960 3.465916 -2.310467 5.131208 -17.494301 5.075845 -1.307385 18.586986 17.808691 82.459052 0.737844 14.056818 34.487877 0.364000 -3.875400 -10.726400 12.828498 8.387889 -24.946553 0.156521 -8.595112 24.743575 0.661771 -6.211606 15.343979 -0.581500 -4.882700 13.574200 1.405241 -2.641626 3.363638 0.323717 -1.144535 -9.559908 1.649380 3.117871 -1.219046 -0.198300 1.595200 -2.148700 -76.273728 9.862609 51.772533 121.970373 -62.052506 -90.401428 0.327679 -1.612061 -23.276696 -7.125000 0.000000 0.000000 65.981340 -22.884608 40.331443 -83.529517 62.967512 -66.091580 2.159412 1.568761 -4.929222 7.125000 0.000000 0.000000 
0.459452 18.497604 18.416469 2.783885 -3.062248 4.795722 -15.956396 6.114694 -4.073957 20.227225 17.936374 88.125839 0.776507 12.751173 33.321263 0.394000 -4.030500 -11.162600 14.142592 9.805791 -24.211647 -0.472377 -9.375944 27.418908 1.338854 -7.382271 12.005997 -0.257600 -3.265300 9.018300 1.583875 -2.075506 3.540631 0.190240 -0.837894 -9.750554 1.671083 3.192177 -1.098808 -0.204500 1.630400 -2.056300 -76.157837 11.097978 50.812104 120.637000 -62.526619 -89.512660 0.319442 -1.658868 -23.037650 -7.125000 0.000000 0.000000 65.642080 -20.588844 40.292178 -84.507867 63.030935 -66.790036 2.106805 1.575351 -5.824591 7.125000 0.000000 0.000000 
0.452691 18.379022 18.912848 2.501019 -3.681960 4.305730 -14.821722 6.928319 -6.213635 21.666865 17.925124 93.195820 0.659992 11.705686 31.502342 0.382800 -3.973200 -11.001400 15.053099 10.687737 -23.169765 -1.064317 -10.042963 29.791667 1.882449 -8.501851 9.534732 -0.124800 -2.277000 6.271700 1.624819 -1.556905 4.001174 0.038654 -0.553695 -9.605761 1.369189 3.106818 -1.469145 -0.351300 1.577600 -2.125800 -76.221545 12.074063 49.850256 119.488207 -62.914201 -88.740137 0.311436 -1.721853 -22.944834 -7.125000 0.000000 0.000000 65.528820 -17.826623 40.016745 -84.973374 62.931317 -67.112027 2.084616 1.564226 -6.081596 7.125000 0.000000 0.000000 
0.446034 18.253575 19.392896 1.768962 -4.109567 3.804324 -13.369513 7.174714 -8.141538 22.951778 17.854886 97.848688 0.628350 10.270323 29.878616 0.283400 -3.424000 -9.461400 16.354096 11.262404 -21.686361 -1.540677 -10.539542 31.884222 2.006758 -8.369842 6.453330 -0.094800 -1.985900 5.466600 1.807278 -1.096133 4.443134 -0.209763 -0.301858 -9.563078 1.205364 3.040062 -2.260916 -0.420100 1.532100 -2.428300 -76.216938 13.337013 48.957624 118.845808 -63.171864 -88.266056 0.284658 -1.749758 -22.952878 -7.125000 0.000000 0.000000 65.346191 -15.117048 39.873673 -85.348979 62.823279 -67.417876 2.054857 1.595660 -6.273889 7.125000 0.000000 0.000000 
0.436048 18.139675 19.867535 -0.268759 -4.475304 3.964449 -10.162778 7.396482 -11.065548 24.131537 17.829944 102.397200 0.962496 6.733431 29.162707 0.282500 -3.418300 -9.445500 18.945015 12.085198 -20.341222 -1.929083 -10.862317 33.568601 2.066675 -8.253118 3.519529 -0.087700 -1.909900 5.256800 2.394188 -0.553000 4.612222 -0.803656 -0.050209 -9.511349 1.245352 3.106355 -2.966508 -0.377900 1.559300 -2.739000 -76.247425 14.837169 47.928859 117.801096 -63.542718 -87.561928 0.273609 -1.774711 -23.179137 -7.125000 0.000000 0.000000 65.013183 -12.584320 39.844412 -85.897478 62.770053 -67.846656 2.003661 1.655337 -6.788027 7.125000 0.000000 0.000000 
0.433551 18.075183 20.347479 -1.957784 -4.567944 4.598553 -7.488186 7.356232 -14.493140 25.119075 17.814785 106.275187 1.256691 2.857338 28.530816 0.389700 -4.008700 -11.101000 21.022443 12.348717 -19.673578 -2.197523 -11.054796 34.667977 2.098925 -8.266017 1.587794 -0.026400 -1.049500 2.885000 2.855754 -0.236021 4.666163 -1.340142 0.101283 -9.275171 1.221756 3.289727 -3.434249 -0.369100 1.644800 -2.889900 -76.367544 16.135547 46.674302 116.263633 -64.007749 -86.574848 0.275822 -1.821213 -23.892330 -7.125000 0.000000 0.000000 64.763683 -9.786124 39.828509 -86.100157 62.620148 -67.979750 1.981218 1.679435 -7.307556 7.125000 0.000000 0.000000 
